<svg width="32" height="32" viewBox="0 0 32 32" xmlns="http://www.w3.org/2000/svg">
  <defs>
    <linearGradient id="gFolder" x1="0%" y1="0%" x2="100%" y2="100%">
      <stop offset="0%" stop-color="#6c4bff"/>
      <stop offset="100%" stop-color="#c877ff"/>
    </linearGradient>
  </defs>
  <path d="M4 10a2 2 0 0 1 2-2h7l2 2h11a2 2 0 0 1 2 2v10a4 4 0 0 1-4 4H6a2 2 0 0 1-2-2z" fill="#140c26"/>
  <path d="M4 12h24v10a4 4 0 0 1-4 4H6a2 2 0 0 1-2-2z" fill="url(#gFolder)" opacity=".8"/>
  <path d="M8 18h16" stroke="#f0e9ff" stroke-width="2" stroke-linecap="round"/>
</svg>
